<svg width="100" height="100" viewBox="0 0 100 100" fill="none" xmlns="http://www.w3.org/2000/svg">
<path opacity="0.2" d="M50 96.875C74.1625 96.875 93.75 77.2875 93.75 53.125C93.75 28.9625 74.1625 9.375 50 9.375C25.8375 9.375 6.25 28.9625 6.25 53.125C6.25 77.2875 25.8375 96.875 50 96.875Z" fill="#00100F"/>
<path d="M50 93.75C74.1625 93.75 93.75 74.1625 93.75 50C93.75 25.8375 74.1625 6.25 50 6.25C25.8375 6.25 6.25 25.8375 6.25 50C6.25 74.1625 25.8375 93.75 50 93.75Z" fill="white"/>
<g opacity="0.2">
<path d="M50 21.875C43.095 21.875 37.5 27.4725 37.5 34.375C37.5 41.2775 43.095 46.875 50 46.875C56.905 46.875 62.5 41.2775 62.5 34.375C62.5 27.4725 56.905 21.875 50 21.875Z" fill="black"/>
<path d="M50 53.125C28.1272 53.1381 28.125 66.9712 28.125 66.9712V72.5962C28.125 72.5962 32.1634 81.25 50 81.25C67.8366 81.25 71.875 72.5962 71.875 72.5962V66.9712C71.875 66.9712 71.875 53.1164 50.0044 53.125H50Z" fill="black"/>
</g>
<path d="M50 18.75C43.095 18.75 37.5 24.3475 37.5 31.25C37.5 38.1525 43.095 43.75 50 43.75C56.905 43.75 62.5 38.1525 62.5 31.25C62.5 24.3475 56.905 18.75 50 18.75Z" fill="#925DBD"/>
<path d="M50 50C28.1272 50.0131 28.125 63.8462 28.125 63.8462V69.4712C28.125 69.4712 32.1634 78.125 50 78.125C67.8366 78.125 71.875 69.4712 71.875 69.4712V63.8462C71.875 63.8462 71.875 49.9914 50.0044 50H50Z" fill="#925DBD"/>
<path opacity="0.2" d="M50 6.25C38.3968 6.25 27.2688 10.8594 19.0641 19.0641C10.8594 27.2688 6.25 38.3968 6.25 50C6.25959 50.6108 6.28198 51.2212 6.31714 51.8311C6.65343 40.4652 11.4017 29.6767 19.5558 21.7516C27.7099 13.8265 38.6291 9.38748 50 9.375C61.2812 9.38243 72.1235 13.7473 80.2632 21.5583C88.4029 29.3693 93.2107 40.0226 93.6829 51.2939C93.7116 50.863 93.734 50.4316 93.75 50C93.75 38.3968 89.1406 27.2688 80.9359 19.0641C72.7312 10.8594 61.6032 6.25 50 6.25V6.25Z" fill="white"/>
</svg>
